<svg width="39" height="39" fill="none" xmlns="http://www.w3.org/2000/svg"><circle cx="19.5" cy="19.5" r="19.5" fill="#ECECEC"/><path d="M19.748 16.498a3.258 3.258 0 0 0-3.252 3.252A3.258 3.258 0 0 0 19.748 23a3.258 3.258 0 0 0 3.251-3.251 3.258 3.258 0 0 0-3.251-3.252zm9.751 3.252c0-1.346.013-2.68-.063-4.025-.076-1.56-.432-2.946-1.573-4.088-1.144-1.144-2.527-1.497-4.088-1.573-1.347-.076-2.681-.063-4.025-.063-1.346 0-2.68-.013-4.025.063-1.56.076-2.946.432-4.088 1.573-1.144 1.144-1.497 2.527-1.573 4.088-.075 1.347-.063 2.68-.063 4.025 0 1.344-.012 2.68.063 4.024.076 1.562.432 2.947 1.573 4.088 1.144 1.145 2.527 1.498 4.088 1.574 1.347.075 2.681.063 4.025.063 1.346 0 2.68.012 4.025-.063 1.56-.076 2.946-.432 4.088-1.573 1.144-1.144 1.497-2.527 1.573-4.088.078-1.345.063-2.679.063-4.025zm-9.751 5.003a4.996 4.996 0 0 1-5.003-5.003 4.996 4.996 0 0 1 5.003-5.003 4.996 4.996 0 0 1 5.002 5.003 4.996 4.996 0 0 1-5.002 5.003zm5.207-9.042a1.167 1.167 0 0 1-1.168-1.169 1.167 1.167 0 1 1 1.995.827 1.166 1.166 0 0 1-.827.342z" fill="#31352B"/></svg>