<svg width="21" height="20" fill="none" xmlns="http://www.w3.org/2000/svg"><path d="m1 1 2.08.356.963 11.34c.077.926.86 1.636 1.8 1.633h10.909a1.794 1.794 0 0 0 1.785-1.528l.949-6.481a1.328 1.328 0 0 0-1.135-1.502c-.064-.009-14.937-.014-14.937-.014M12.375 8.458h2.773" stroke="#31352B" stroke-width="1.5" stroke-linecap="round" stroke-linejoin="round"/><path fill-rule="evenodd" clip-rule="evenodd" d="M5.404 17.756a.54.54 0 0 1 .544.538.541.541 0 0 1-.544.539.541.541 0 0 1-.544-.54.54.54 0 0 1 .544-.537zM16.685 17.756c.3 0 .545.241.545.538a.542.542 0 0 1-.545.539.541.541 0 0 1-.544-.54.54.54 0 0 1 .544-.537z" fill="#31352B" stroke="#31352B" stroke-width="1.5" stroke-linecap="round" stroke-linejoin="round"/></svg>