<svg width="39" height="39" fill="none" xmlns="http://www.w3.org/2000/svg"><circle cx="19.5" cy="19.5" r="19.5" fill="#ECECEC"/><path d="M29.526 12.98a8.437 8.437 0 0 1-2.422.652 4.196 4.196 0 0 0 1.85-2.319 8.305 8.305 0 0 1-2.67 1.017A4.194 4.194 0 0 0 23.212 11a4.205 4.205 0 0 0-4.206 4.208c0 .326.04.652.104.965a11.954 11.954 0 0 1-8.673-4.403 4.177 4.177 0 0 0-.573 2.123c0 1.46.743 2.749 1.875 3.506a4.243 4.243 0 0 1-1.902-.535v.051a4.207 4.207 0 0 0 3.372 4.13 4.451 4.451 0 0 1-1.107.143c-.274 0-.533-.027-.795-.064a4.214 4.214 0 0 0 3.933 2.918 8.43 8.43 0 0 1-5.223 1.798c-.352 0-.678-.012-1.016-.052a11.911 11.911 0 0 0 6.46 1.888c7.736 0 11.97-6.41 11.97-11.972 0-.182 0-.365-.013-.547a9.06 9.06 0 0 0 2.11-2.176z" fill="#31352B"/></svg>