<svg width="34" height="34" fill="none" xmlns="http://www.w3.org/2000/svg"><path d="m6.518 24.469.407.97c.288-.117.587-.205.893-.26l-.19-1.034c-.38.069-.753.177-1.11.324zM3.727 27.075l.956.458a4.322 4.322 0 0 1 1.46-1.676l-.6-.867a5.378 5.378 0 0 0-1.816 2.085z" fill="#0AF"/><path d="M32.938 26.78c0-.905-.337-1.777-.948-2.45l-.791.7c.314.346.529.769.623 1.225h-3.666a.536.536 0 0 0-.442.233l-1.967 2.917h-1.31V27.83a3.659 3.659 0 0 1 1.09-2.598 3.745 3.745 0 0 1 2.63-1.078h1.062c.522 0 1.033.152 1.468.438l.588-.875a3.723 3.723 0 0 0-1.525-.575v-1.613a.522.522 0 0 0-.156-.371.534.534 0 0 0-.375-.154 2.14 2.14 0 0 1-1.502-.616 2.09 2.09 0 0 1-.623-1.485v-2.1h1.593c.141 0 .276-.055.376-.154a.522.522 0 0 0 .156-.37v-3.677a.522.522 0 0 0-.156-.37.535.535 0 0 0-.375-.154h-.938c-.221 0-.442.03-.656.089v-.615a.521.521 0 0 0-.117-.328L25.24 9.077a1.82 1.82 0 0 0-.43-2.366 1.873 1.873 0 0 0-2.43.078 1.822 1.822 0 0 0-.274 2.388 1.86 1.86 0 0 0 1.06.74c.432.112.89.067 1.291-.127l1.575 1.947v.662l-2.335-.77a1.448 1.448 0 0 0-.476-.077h-4.382l-2.522-2.908A1.58 1.58 0 0 0 17 7.352v-.2l.769-.38a.53.53 0 0 0 .276-.336.518.518 0 0 0-.072-.426l-.872-1.293a.532.532 0 0 0 .309-.182.52.52 0 0 0 .121-.334c0-.835-.337-1.636-.934-2.226a3.21 3.21 0 0 0-2.253-.924c-1 0-1.927.284-2.616 1.036a3.123 3.123 0 0 0-.808 2.427l.113 1.124c.048.484.282.932.655 1.25v9.915c0 .37.098.731.285 1.05h-.817c-.18 0-.36.03-.531.09v-6.916c0-.417-.168-.818-.467-1.113a1.605 1.605 0 0 0-1.127-.462H2.656c-.422 0-.827.167-1.126.462a1.568 1.568 0 0 0-.468 1.113v2.626h1.063v-1.05h7.438v5.25H2.125v-3.15H1.062v4.287c0 .246.088.485.247.673.16.19.381.317.626.36l4.971.894v1.232c-.45.103-.89.247-1.314.43H2.656a.534.534 0 0 0-.375.154.522.522 0 0 0-.156.371v2.492a7.393 7.393 0 0 0-1.063 3.81c0 .139.056.272.156.37.1.099.235.154.376.154h2.435c.317.776.862 1.44 1.564 1.908a4.286 4.286 0 0 0 4.752 0 4.211 4.211 0 0 0 1.564-1.908h8.932a2.687 2.687 0 0 0 1.966-.859l.568-.618v1.477c0 .14.056.273.156.372.1.098.234.153.375.153h1.101c.468.801 1.19 1.427 2.054 1.78a4.297 4.297 0 0 0 2.727.177 4.253 4.253 0 0 0 2.271-1.5 4.17 4.17 0 0 0 .705-3.745.522.522 0 0 0 .173-.387zM22.843 8.14a.782.782 0 0 1 .492-.728.805.805 0 0 1 .868.17.786.786 0 0 1 .173.859.803.803 0 0 1-1.3.255.784.784 0 0 1-.233-.557zm-7.6 18.64c-.52 0-1.02-.205-1.387-.569a1.93 1.93 0 0 1-.576-1.37c0-.516.132-.998.48-1.395.31-.353.737-.583 1.205-.65a2.377 2.377 0 0 0 1.454-.783c.374-.426.58-.97.58-1.534a.518.518 0 0 0-.156-.372 1.56 1.56 0 0 0 .065-1.203h1.443l-2.332 5.99a1.208 1.208 0 0 0-.082.453v1.433h-.694zM17 25.73h2.656a.535.535 0 0 1 .508.372.52.52 0 0 1-.213.59 1.074 1.074 0 0 1-.424.088H17v-1.05zm4.123-.092a1.582 1.582 0 0 0-.484-.623 1.608 1.608 0 0 0-.727-.315l2.2-5.235a3.03 3.03 0 0 0-.284-2.875 3.085 3.085 0 0 0-1.116-1 3.126 3.126 0 0 0-1.46-.362H17v-.833l.156.154a.533.533 0 0 0 .375.154h5.404a1.557 1.557 0 0 0 .201 1.435 1.607 1.607 0 0 0 1.301.666h.002a2.592 2.592 0 0 0-.533 1.575v4.073c0 .278-.112.545-.311.742l-2.472 2.444zm3.314-9.885a.535.535 0 0 1-.49-.324.52.52 0 0 1 .115-.572.532.532 0 0 1 .579-.114.53.53 0 0 1 .328.485c0 .14-.056.273-.156.371a.535.535 0 0 1-.375.154zm3.72-2.625v2.625h-1.063v-2.462a1.41 1.41 0 0 1 .656-.163h.406zm-2.126 2.1a1.56 1.56 0 0 0-.673-1.286 1.603 1.603 0 0 0-1.452-.199v-.937l2.125.7v1.722zm-7.437-2.626h4.25v1.05H17.75l-3.032-2.996-.75.743 1.969 1.946v1.883H12.75V8.927h2.412l3.028 3.492a.53.53 0 0 0 .404.183zm-6.078-9.81c.485-.53 1.13-.691 1.828-.691.47 0 .928.155 1.3.44.373.286.64.685.757 1.135h-2.057a.535.535 0 0 0-.376.154.522.522 0 0 0-.155.371v1.247a.848.848 0 0 1-.24.586.868.868 0 0 1-1.482-.5l-.114-1.124a2.054 2.054 0 0 1 .539-1.618zm.433 4.56c.51 0 1-.202 1.361-.558.361-.357.564-.841.565-1.346v-.722h1.063a.52.52 0 0 0 .089.292l.728 1.08-.524.26a.53.53 0 0 0-.294.469v.525c0 .139-.056.272-.155.37a.535.535 0 0 1-.376.155H12.75V7.34c.066.007.133.01.2.01zm-.199 9.451v-.525h6.501c.335 0 .665.082.96.238.296.156.547.382.733.657a1.997 1.997 0 0 1 .187 1.889l-2.36 5.617h-1.529l2.379-6.112a.52.52 0 0 0-.249-.653.536.536 0 0 0-.247-.06h-5.313a1.07 1.07 0 0 1-.75-.309 1.045 1.045 0 0 1-.312-.742zm-1.594 2.1h4.25c.141 0 .276.056.376.154a.522.522 0 0 1-.376.897h-4.25a.534.534 0 0 1-.375-.154.522.522 0 0 1 .375-.896zm-9.031-7.35v-.526c0-.139.056-.272.156-.37a.535.535 0 0 1 .375-.155h6.375c.141 0 .276.056.376.154.1.099.155.232.155.371v.525H2.125zm0 7.35h7.438v1.05H7.485l-5.36-.963v-.086zm1.72 4.726c-.231.185-.45.384-.658.594v-.594h.657zm4.124 7.877a3.24 3.24 0 0 1-1.592-.426 3.194 3.194 0 0 1-1.168-1.15h1.356a2.136 2.136 0 0 0 2.808 0h1.356a3.193 3.193 0 0 1-1.169 1.15 3.24 3.24 0 0 1-1.591.426zm14.051-3.141a1.595 1.595 0 0 1-1.18.515H2.148a6.358 6.358 0 0 1 1.592-3.701 6.487 6.487 0 0 1 3.513-2.03 2.01 2.01 0 0 1 .418-.045h3.486v-1.05H7.97v-1.05h7.856a1.314 1.314 0 0 1-1.01.753c-.72.102-1.38.458-1.857 1-.514.586-.74 1.318-.74 2.083 0 .712.258 1.4.726 1.94H8.5v1.05h11.027a2.176 2.176 0 0 0 1.503-.615l3.316-3.278c.398-.395.621-.928.623-1.485v-4.074c0-.325.102-.643.293-.909.19-.266.459-.467.77-.576v2.01c0 .745.267 1.465.753 2.033.486.569 1.16.95 1.902 1.074v1.094c-.33 0-.667-.02-.995.023a4.82 4.82 0 0 0-2.683 1.15 4.727 4.727 0 0 0-1.507 2.476l-1.482 1.612zm6.42-1.06h.027l.642.634a.588.588 0 0 1 .074.743.594.594 0 0 1-.612.25.597.597 0 0 1-.305-.16l-.489-.484.663-.983zm.247 4.2c-.46 0-.914-.1-1.332-.291a3.2 3.2 0 0 1-1.09-.813.528.528 0 0 0 .208-.18l.46-.682c.257.37.626.65 1.055.799.428.148.893.156 1.327.024a2.123 2.123 0 0 0 1.083-.76 2.083 2.083 0 0 0 .129-2.297h1.166a3.118 3.118 0 0 1-.403 2.869 3.178 3.178 0 0 1-1.137.978 3.218 3.218 0 0 1-1.465.354z" fill="#0AF"/><path d="M4.25 13.652H3.187v3.15H4.25v-3.15z" fill="#0AF"/></svg>